<svg xmlns="http://www.w3.org/2000/svg" version="1.1" xmlns:xlink="http://www.w3.org/1999/xlink" xmlns:svgjs="http://svgjs.com/svgjs" width="248" height="248"><svg width="248" height="248" viewBox="0 0 248 248" fill="none" xmlns="http://www.w3.org/2000/svg">
<rect width="248" height="248" rx="68" fill="#15D828"></rect>
<path d="M121.376 36.72C122.144 37.36 122.688 38.608 123.008 40.464C123.392 42.32 123.552 44.336 123.488 46.512C123.424 48.624 123.104 50.544 122.528 52.272C121.952 53.936 121.12 54.928 120.032 55.248C119.584 55.376 118.656 55.568 117.248 55.824C115.904 56.016 114.656 56.272 113.504 56.592C112.416 56.912 110.976 57.456 109.184 58.224C107.392 58.992 105.856 60.112 104.576 61.584C103.552 62.8 102.72 64.08 102.08 65.424C101.44 66.704 101.088 68.368 101.024 70.416C100.96 71.248 100.928 72.816 100.928 75.12C100.928 77.36 100.928 79.984 100.928 82.992C100.928 85.936 100.928 88.848 100.928 91.728C100.992 94.608 101.024 97.072 101.024 99.12C101.024 101.168 101.024 102.384 101.024 102.768C100.96 104.688 101.152 106.32 101.6 107.664C102.048 109.008 102.528 109.808 103.04 110.064C101.44 111.28 99.84 112.304 98.24 113.136C96.704 113.968 94.496 114.576 91.616 114.96C90.528 115.088 89.312 114.768 87.968 114C86.624 113.296 85.44 112.176 84.416 110.64C83.456 109.04 82.944 107.088 82.88 104.784C82.88 102.48 82.848 99.536 82.784 95.952C82.784 92.304 82.784 88.368 82.784 84.144C82.848 79.856 82.848 75.568 82.784 71.28C82.72 69.424 82.432 67.664 81.92 66C81.472 64.336 80.704 62.896 79.616 61.68C78.528 60.4 77.088 59.344 75.296 58.512C73.504 57.68 71.264 57.136 68.576 56.88C67.872 56.816 66.912 56.624 65.696 56.304C64.48 55.984 63.648 55.664 63.2 55.344C62.496 54.832 61.92 53.872 61.472 52.464C61.024 50.992 60.672 49.392 60.416 47.664C60.16 45.872 59.968 44.112 59.84 42.384C59.776 40.656 59.776 39.248 59.84 38.16C60.096 38.224 60.8 38.32 61.952 38.448C63.168 38.576 64.608 38.704 66.272 38.832C67.936 38.896 69.568 38.96 71.168 39.024C72.32 39.088 73.856 39.152 75.776 39.216C77.76 39.28 79.872 39.344 82.112 39.408C84.352 39.472 86.464 39.536 88.448 39.6C90.432 39.6 92.064 39.6 93.344 39.6C95.072 39.536 97.088 39.472 99.392 39.408C101.696 39.344 103.904 39.28 106.016 39.216C108.192 39.088 109.92 38.96 111.2 38.832C112.48 38.704 113.824 38.544 115.232 38.352C116.704 38.096 117.984 37.84 119.072 37.584C120.224 37.264 120.992 36.976 121.376 36.72ZM171.12 96.528C172.016 96.4 173.136 96.24 174.48 96.048C175.888 95.856 177.2 95.632 178.416 95.376C179.696 95.056 180.56 94.704 181.008 94.32C181.84 95.024 182.384 96.464 182.64 98.64C182.96 100.752 182.864 102.96 182.352 105.264C181.968 107.248 181.296 109.104 180.336 110.832C179.376 112.56 178 113.616 176.208 114C174.672 114.32 172.912 114.512 170.928 114.576C168.944 114.64 166.928 114.64 164.88 114.576C162.832 114.512 160.944 114.448 159.216 114.384C157.552 114.32 156.272 114.288 155.376 114.288C154.48 114.288 153.072 114.288 151.152 114.288C149.296 114.352 147.664 114.416 146.256 114.48C144.592 114.672 142.768 114.8 140.784 114.864C138.8 114.928 136.976 114.864 135.312 114.672C133.648 114.48 132.432 114.16 131.664 113.712C132.112 112.816 132.496 111.472 132.816 109.68C133.136 107.824 133.392 105.808 133.584 103.632C133.776 101.456 133.84 99.376 133.776 97.392L133.584 79.824V71.664C133.584 69.36 133.552 67.44 133.488 65.904C133.488 64.368 133.488 63.536 133.488 63.408C133.488 61.296 133.392 59.024 133.2 56.592C133.008 54.16 132.784 51.856 132.528 49.68C132.272 47.44 132.048 45.616 131.856 44.208C131.6 43.12 131.408 42.064 131.28 41.04C131.152 39.952 131.12 38.992 131.184 38.16C131.632 38.352 132.848 38.544 134.832 38.736C136.88 38.864 139.248 38.992 141.936 39.12C142.128 39.12 143.056 39.152 144.72 39.216C146.384 39.216 148.432 39.248 150.864 39.312C153.36 39.376 155.92 39.44 158.544 39.504C161.232 39.504 163.664 39.504 165.84 39.504C168.016 39.504 169.616 39.472 170.64 39.408C173.264 39.28 175.472 39.088 177.264 38.832C179.12 38.512 180.368 38.096 181.008 37.584C181.776 38.224 182.48 39.44 183.12 41.232C183.824 42.96 184.208 44.784 184.272 46.704C184.272 48.56 183.824 50.32 182.928 51.984C182.096 53.584 180.56 54.672 178.32 55.248C177.488 55.44 176.176 55.6 174.384 55.728C172.656 55.856 170.96 55.952 169.296 56.016C167.696 56.016 166.544 55.984 165.84 55.92C163.856 55.728 161.808 55.952 159.696 56.592C157.584 57.168 155.792 57.968 154.32 58.992C152.848 59.952 152.08 61.008 152.016 62.16C151.952 63.248 152.4 64.144 153.36 64.848C154.32 65.552 155.568 66.128 157.104 66.576C158.704 66.96 160.4 67.216 162.192 67.344C163.984 67.472 165.68 67.504 167.28 67.44C168.56 67.312 170.032 67.088 171.696 66.768C173.36 66.448 174.384 66.128 174.768 65.808C175.6 66.512 176.176 67.824 176.496 69.744C176.88 71.664 176.88 73.648 176.496 75.696C176.176 77.36 175.536 78.896 174.576 80.304C173.616 81.712 172.272 82.672 170.544 83.184C169.2 83.568 168.048 83.824 167.088 83.952C166.128 84.016 165.648 84.048 165.648 84.048C161.872 84.048 158.672 84.72 156.048 86.064C153.488 87.344 152.08 88.88 151.824 90.672C151.568 92.208 151.888 93.616 152.784 94.896C153.744 96.176 155.12 96.88 156.912 97.008C158.128 97.072 159.664 97.104 161.52 97.104C163.44 97.04 165.296 96.976 167.088 96.912C168.944 96.784 170.288 96.656 171.12 96.528Z" fill="black"></path>
<path d="M129.864 205.856C130.248 206.432 130.12 207.168 129.48 208.064C128.84 208.96 127.944 209.856 126.792 210.752C125.64 211.584 124.456 212.192 123.24 212.576C122.088 212.96 120.552 212.864 118.632 212.288C116.712 211.712 114.728 210.784 112.68 209.504C110.696 208.16 109.032 206.624 107.688 204.896C107.432 204.576 107.016 204.032 106.44 203.264C105.928 202.432 105.352 201.6 104.712 200.768C104.328 200.192 103.784 199.488 103.08 198.656C102.376 197.824 101.448 197.12 100.296 196.544C99.144 195.904 97.704 195.616 95.976 195.68C93.416 195.808 91.176 196.704 89.256 198.368C87.336 199.968 85.544 201.664 83.88 203.456C82.216 205.248 81.16 206.752 80.712 207.968C80.264 209.12 80.2 210.176 80.52 211.136C79.24 211.84 77.768 212.288 76.104 212.48C74.504 212.736 72.936 212.768 71.4 212.576C69.864 212.384 68.584 212.032 67.56 211.52C67.176 211.328 66.536 210.944 65.64 210.368C64.744 209.792 63.848 209.152 62.952 208.448C62.12 207.68 61.48 206.88 61.032 206.048C60.648 205.216 60.712 204.416 61.224 203.648C61.864 202.752 62.888 201.44 64.296 199.712C65.768 197.984 67.336 196.128 69 194.144C70.728 192.096 72.36 190.176 73.896 188.384C75.432 186.592 76.616 185.216 77.448 184.256C79.112 182.272 80.232 180.384 80.808 178.592C81.384 176.736 81.704 174.72 81.768 172.544C81.832 169.024 80.936 165.664 79.08 162.464C78.632 161.76 77.8 160.48 76.584 158.624C75.432 156.768 74.056 154.688 72.456 152.384C70.92 150.016 69.416 147.744 67.944 145.568C66.536 143.328 65.352 141.504 64.392 140.096C63.432 138.624 62.952 137.888 62.952 137.888C63.848 137.504 65.224 137.12 67.08 136.736C69 136.352 71.144 136.128 73.512 136.064C75.88 136 78.152 136.256 80.328 136.832C82.568 137.344 84.456 138.368 85.992 139.904C86.248 140.16 86.728 140.768 87.432 141.728C88.136 142.624 88.904 143.648 89.736 144.8C90.632 145.888 91.368 146.912 91.944 147.872C92.84 149.28 93.992 150.464 95.4 151.424C96.872 152.384 98.344 152.928 99.816 153.056C101.096 153.184 102.344 153.088 103.56 152.768C104.776 152.384 106.024 151.584 107.304 150.368C108.84 149.088 110.184 147.424 111.336 145.376C112.488 143.264 113.416 141.248 114.12 139.328C114.888 137.344 115.304 135.936 115.368 135.104C118.568 136.384 121.064 138.048 122.856 140.096C124.648 142.144 125.8 144.384 126.312 146.816C126.824 149.184 126.824 151.52 126.312 153.824C125.864 156.064 125 158.08 123.72 159.872C123.4 160.32 122.6 161.248 121.32 162.656C120.104 164.064 118.728 165.632 117.192 167.36C115.72 169.024 114.376 170.528 113.16 171.872C112.328 172.768 111.912 173.952 111.912 175.424C111.912 177.216 112.488 179.04 113.64 180.896C114.92 182.816 116.328 185.024 117.864 187.52C119.464 189.952 121.064 192.416 122.664 194.912C124.264 197.344 125.704 199.552 126.984 201.536C128.264 203.456 129.224 204.896 129.864 205.856ZM199.251 134.72C200.019 135.36 200.563 136.608 200.883 138.464C201.267 140.32 201.427 142.336 201.363 144.512C201.299 146.624 200.979 148.544 200.403 150.272C199.827 151.936 198.995 152.928 197.907 153.248C197.459 153.376 196.531 153.568 195.123 153.824C193.779 154.016 192.531 154.272 191.379 154.592C190.291 154.912 188.851 155.456 187.059 156.224C185.267 156.992 183.731 158.112 182.451 159.584C181.427 160.8 180.595 162.08 179.955 163.424C179.315 164.704 178.963 166.368 178.899 168.416C178.835 169.248 178.803 170.816 178.803 173.12C178.803 175.36 178.803 177.984 178.803 180.992C178.803 183.936 178.803 186.848 178.803 189.728C178.867 192.608 178.899 195.072 178.899 197.12C178.899 199.168 178.899 200.384 178.899 200.768C178.835 202.688 179.027 204.32 179.475 205.664C179.923 207.008 180.403 207.808 180.915 208.064C179.315 209.28 177.715 210.304 176.115 211.136C174.579 211.968 172.371 212.576 169.491 212.96C168.403 213.088 167.187 212.768 165.843 212C164.499 211.296 163.315 210.176 162.291 208.64C161.331 207.04 160.819 205.088 160.755 202.784C160.755 200.48 160.723 197.536 160.659 193.952C160.659 190.304 160.659 186.368 160.659 182.144C160.723 177.856 160.723 173.568 160.659 169.28C160.595 167.424 160.307 165.664 159.795 164C159.347 162.336 158.579 160.896 157.491 159.68C156.403 158.4 154.963 157.344 153.171 156.512C151.379 155.68 149.139 155.136 146.451 154.88C145.747 154.816 144.787 154.624 143.571 154.304C142.355 153.984 141.523 153.664 141.075 153.344C140.371 152.832 139.795 151.872 139.347 150.464C138.899 148.992 138.547 147.392 138.291 145.664C138.035 143.872 137.843 142.112 137.715 140.384C137.651 138.656 137.651 137.248 137.715 136.16C137.971 136.224 138.675 136.32 139.827 136.448C141.043 136.576 142.483 136.704 144.147 136.832C145.811 136.896 147.443 136.96 149.043 137.024C150.195 137.088 151.731 137.152 153.651 137.216C155.635 137.28 157.747 137.344 159.987 137.408C162.227 137.472 164.339 137.536 166.323 137.6C168.307 137.6 169.939 137.6 171.219 137.6C172.947 137.536 174.963 137.472 177.267 137.408C179.571 137.344 181.779 137.28 183.891 137.216C186.067 137.088 187.795 136.96 189.075 136.832C190.355 136.704 191.699 136.544 193.107 136.352C194.579 136.096 195.859 135.84 196.947 135.584C198.099 135.264 198.867 134.976 199.251 134.72Z" fill="black"></path>
</svg><style>@media (prefers-color-scheme: light) { :root { filter: none; } }
</style></svg>